<svg width="701px" height="1032px" viewBox="0 0 701 1032" version="1.1" xmlns="http://www.w3.org/2000/svg" xmlns:xlink="http://www.w3.org/1999/xlink">
    <!-- Generator: Sketch 43.2 (39069) - http://www.bohemiancoding.com/sketch -->
    <title>Fill 1</title>
    <desc>Created with Sketch.</desc>
    <defs></defs>
    <g id="Page-1" stroke="none" stroke-width="1" fill="none" fill-rule="evenodd">
        <g id="Homepage" transform="translate(-739.000000, 0.000000)" fill="#1D314A">
            <g id="Locations" transform="translate(739.000000, -16.000000)">
                <g id="Base">
                    <path d="M171.097923,0 L162.413056,2.14005935 L159.144214,19.5097923 L152.716914,26.0510386 L158.125816,35.7507418 L151.58457,41.1667656 L154.856973,47.704451 L150.459347,41.1667656 L154.856973,32.4818991 L147.30089,46.5792285 L137.48724,35.7507418 L142.899703,28.1946588 L120.227893,20.6385757 L120.227893,33.6071217 L115.833828,30.3347181 L109.402967,40.0379822 L116.95905,55.264095 L120.227893,53.1204748 L116.95905,57.4077151 L127.787537,57.4077151 L129.927596,62.820178 L122.371513,62.820178 L117.973887,71.5050445 L111.543027,73.6451039 L108.274184,68.2326409 L97.4492582,69.3614243 L96.3169139,61.6913947 L67.1109792,70.3762611 L63.8385757,76.9175074 L67.1109792,81.2047478 L62.8237389,81.2047478 L63.8385757,84.4735905 L66.0961424,92.0296736 L60.6801187,88.7608309 L51.9952522,97.4456973 L63.8385757,105.00178 L53.010089,120.227893 L44.4391691,121.24273 L57.411276,126.655193 L55.264095,141.884866 L66.0961424,135.340059 L61.6949555,142.896142 L72.5234421,145.153709 L61.6949555,148.308605 L50.8700297,160.265875 L25.9406528,158.122255 L22.7821958,158.122255 L16.2409496,164.549555 L10.8284866,154.849852 L0,155.982196 L1.12878338,162.405935 L8.6884273,159.137092 L6.54480712,163.534718 L18.3845697,165.678338 L17.3732938,171.090801 L63.8385757,165.678338 L75.7922849,168.950742 L88.7643917,164.549555 L85.495549,158.122255 L89.8896142,153.724629 L132.071217,146.168546 L140.756083,150.566172 L132.071217,150.566172 L134.214837,160.265875 L128.805935,151.581009 L120.227893,150.566172 L106.134125,160.265875 L111.543027,164.549555 L100.718101,168.950742 L116.95905,172.219585 L120.227893,167.821958 L119.102671,172.219585 L123.389911,166.807122 L127.787537,173.234421 L135.34362,169.965579 L135.34362,161.394659 L146.172107,159.137092 L140.756083,164.549555 L146.172107,162.405935 L144.032047,166.807122 L152.716914,166.807122 L147.30089,168.950742 L150.459347,172.219585 L146.172107,172.219585 L150.459347,173.234421 L147.30089,177.635608 L153.72819,181.919288 L152.716914,190.604154 L172.109199,200.303858 L174.366766,211.132344 L177.525223,210.117507 L182.937685,208.988724 L185.191691,214.404748 L179.782789,216.544807 L182.937685,210.117507 L176.510386,214.404748 L186.206528,245.757864 L191.622552,245.757864 L190.607715,231.77092 L193.766172,239.327003 L197.042136,234.925816 L192.751335,245.757864 L198.163798,251.170326 L206.848665,231.77092 L201.432641,250.15549 L204.594659,254.44273 L210.003561,251.170326 L203.576261,257.711573 L208.995846,263.127596 L204.594659,263.127596 L207.863501,269.665282 L204.594659,264.252819 L205.723442,270.68368 L200.307418,271.812463 L210.003561,293.465875 L199.182196,301.021958 L205.723442,298.878338 L212.261128,296.734718 L212.261128,303.162018 L204.594659,318.391691 L214.408309,311.846884 L220.832047,303.162018 L212.261128,316.134125 L215.423145,319.402967 L206.848665,321.550148 L204.594659,325.947774 L211.135905,331.360237 L204.594659,333.503858 L207.863501,345.457567 L217.680712,337.791098 L214.408309,344.332344 L219.820772,347.601187 L212.261128,343.203561 L217.680712,360.573294 L208.995846,364.856973 L214.408309,362.716914 L213.279525,368.125816 L224.108012,363.842136 L211.135905,374.670623 L211.135905,381.097923 L216.548368,378.954303 L208.995846,382.226706 L215.423145,384.366766 L207.863501,385.495549 L218.688427,388.767953 L208.995846,388.767953 L221.964392,394.180415 L217.680712,394.180415 L219.820772,397.342433 L228.505638,395.195252 L218.688427,398.467656 L223.093175,403.880119 L227.376855,399.592878 L224.108012,403.880119 L229.406528,406.0273 L237.076558,407.152522 L229.516914,413.579822 L233.91454,418.995846 L238.20178,415.833828 L240.34184,413.579822 L241.470623,422.264688 L236.061721,424.408309 L244.746588,423.393472 L241.470623,434.221958 L246.886647,440.649258 L240.34184,465.571513 L241.470623,453.731751 L232.789318,461.287834 L241.470623,449.334125 L221.964392,439.634421 L219.820772,465.571513 L224.108012,465.571513 L217.680712,476.403561 L224.108012,478.547181 L218.688427,477.528783 L196.020178,530.538872 L194.894955,554.335905 L186.206528,569.562018 L187.335312,597.64273 L192.751335,615.012463 L202.451039,616.141246 L202.451039,626.969733 L198.163798,620.428487 L197.042136,630.12819 L212.261128,670.280119 L210.003561,679.979822 L217.680712,684.263501 L236.061721,695.091988 L247.901484,711.336499 L262.002374,768.740653 L264.145994,773.138279 L284.78457,799.078932 L280.383383,806.635015 L284.78457,812.047478 L268.54362,807.767359 L288.053412,828.291988 L294.484273,825.019585 L307.452819,841.260534 L306.441543,861.902671 L332.378635,885.696142 L336.776261,896.524629 L345.347181,893.252226 L341.063501,879.154896 L328.091395,872.731157 L319.406528,835.848071 L303.165579,813.176261 L302.040356,802.351335 L280.383383,772.009496 L279.368546,740.65638 L303.165579,755.772107 L308.581602,777.425519 L311.850445,790.397626 L308.581602,793.666469 L311.850445,797.953709 L311.850445,790.732344 L312.865282,794.791691 L326.962611,814.191098 L335.647478,816.448665 L334.522255,825.019585 L354.035608,844.532938 L349.748368,853.214243 L369.25816,865.171513 L369.25816,872.731157 L399.486053,903.065875 L410.310979,926.862908 L404.902077,936.566172 L409.299703,939.838576 L401.740059,941.978635 L404.902077,948.519881 L436.369139,976.600593 L461.291395,983.14184 L475.278338,993.970326 L492.64451,999.38635 L548.923442,1016.75608 L585.810089,1008.06766 L635.544214,1036.15193 L682.123442,1041.56439 L677.836202,1040.54955 L699.493175,1035.13709 L701.636795,1042.69318 L695.091988,1043.82196 L729.721068,1064.35015 L725.433828,1067.61899 L729.721068,1068.63383 L729.721068,1079.46231 L734.122255,1079.46231 L738.409496,1078.44748 L736.262315,1075.17507 L743.818398,1077.32226 L764.456973,1087.12878 L765.47181,1094.68843 L769.865875,1094.68843 L767.611869,1090.2908 L776.300297,1097.96083 L779.569139,1093.55964 L794.684866,1091.41958 L799.082493,1097.96083 L805.509792,1093.55964 L808.782196,1102.24807 L816.34184,1100.10089 L822.875964,1094.68843 L815.323442,1086.00356 L821.754303,1080.5911 L835.84451,1069.76261 L846.676558,1076.30386 L853.214243,1074.04985 L847.805341,1081.71988 L857.31632,1088.927 L859.392285,1081.65935 L861.55727,1083.83145 L868.052226,1076.24688 L864.55905,1069.24985 L855.361424,1063.22136 L836.980415,1062.20297 L827.163205,1064.35015 L821.754303,1068.63383 L804.494955,1080.5911 L791.522849,1078.44748 L793.67003,1081.71988 L786.110386,1082.73116 L774.156677,1070.89139 L757.912166,1055.66172 L765.47181,1010.21128 L761.188131,997.24273 L735.133531,990.697923 L685.395846,1003.67003 L672.4273,1002.65163 L683.255786,985.289021 L683.255786,963.632047 L678.854599,963.632047 L683.255786,956.075964 L687.535905,965.772107 L692.948368,943.107418 L687.535905,941.978635 L700.508012,913.894362 L678.854599,912.765579 L646.3727,926.862908 L640.960237,952.807122 L627.988131,969.04451 L616.034421,966.904451 L582.530564,978.85816 L570.580415,969.04451 L559.751929,970.173294 L527.266469,919.306825 L526.258754,910.621958 L525.12997,880.28724 L526.258754,868.32997 L532.686053,865.171513 L530.538872,871.598813 L535.954896,856.486647 L531.671217,835.848071 L526.258754,834.833234 L531.671217,834.833234 L534.826113,820.732344 L546.783383,815.319881 L542.492582,811.036202 L552.192285,812.047478 L548.923442,814.191098 L565.171513,804.494955 L566.293175,793.666469 L573.852819,795.810089 L569.562018,799.078932 L583.548961,792.537685 L606.334718,793.666469 L612.872404,788.250445 L627.988131,799.078932 L633.400593,793.666469 L638.816617,796.938872 L636.672997,789.379228 L643.103858,790.397626 L649.645104,799.078932 L655.057567,793.666469 L644.22908,789.379228 L650.770326,782.841543 L644.22908,781.709199 L633.400593,779.569139 L665.882493,773.138279 L667.011276,765.468249 L670.166172,772.009496 L667.011276,775.281899 L680.994659,766.597033 L678.854599,770.884273 L692.948368,766.597033 L688.668249,768.740653 L701.636795,767.725816 L703.780415,772.009496 L707.049258,777.425519 L717.874184,769.869436 L722.161424,766.597033 L727.577448,767.725816 L747.08724,782.841543 L747.08724,799.078932 L752.499703,796.938872 L750.359644,805.620178 L755.768546,813.176261 L761.188131,811.036202 L767.611869,827.277151 L778.447478,830.432047 L778.447478,838.102077 L786.110386,834.833234 L789.268843,807.767359 L765.47181,760.055786 L755.768546,741.671217 L765.47181,722.157864 L762.199407,717.877745 L766.600593,721.146588 L773.027893,711.336499 L786.110386,690.804748 L813.179822,662.610089 L804.494955,663.735312 L809.910979,657.194065 L802.351335,656.179228 L814.19822,655.054006 L818.592285,648.623145 L815.323442,643.210682 L814.19822,649.637982 L813.179822,644.225519 L804.494955,647.497923 L809.910979,639.94184 L815.323442,642.081899 L810.922255,632.382196 L819.607122,645.354303 L809.910979,629.109792 L795.810089,626.969733 L803.369733,627.988131 L796.942433,621.553709 L802.351335,625.84095 L803.369733,619.303264 L802.351335,613.88724 L787.128783,610.728783 L787.128783,605.31632 L801.226113,611.740059 L791.522849,593.362611 L800.097329,585.806528 L796.942433,598.775074 L809.910979,610.728783 L808.782196,625.84095 L814.19822,600.915134 L803.369733,581.405341 L814.19822,591.21543 L819.607122,574.978042 L814.19822,564.149555 L819.607122,552.195846 L842.392878,539.223739 L840.249258,530.538872 L844.532938,535.951335 L857.505045,527.266469 L854.236202,521.854006 L853.214243,528.395252 L841.264095,520.839169 L842.392878,495.916914 L846.676558,493.773294 L844.532938,488.35727 L852.092582,488.35727 L851.074184,474.25638 L853.214243,480.797626 L857.505045,473.131157 L861.906231,476.403561 L869.462315,463.431454 L864.046291,458.018991 L872.731157,458.018991 L887.843323,435.236795 L885.703264,446.061721 L889.990504,443.921662 L880.290801,464.560237 L884.57092,476.403561 L893.255786,478.547181 L897.543027,454.746588 L905.209496,453.731751 L902.951929,449.334125 L921.454006,430.949555 L924.612463,426.665875 L919.313947,425.309199 L927.884866,412.564985 L926.866469,409.296142 L922.468843,408.167359 L922.468843,420.121068 L919.2,422.264688 L921.454006,409.296142 L916.037982,398.467656 L912.769139,418.995846 L918.861721,425.195252 L911.643917,423.393472 L899.800593,433.093175 L881.298516,429.820772 L874.874777,418.995846 L869.462315,422.264688 L869.462315,408.167359 L862.917507,414.712166 L859.648665,410.421365 L849.948961,413.579822 L864.046291,406.0273 L869.462315,396.324036 L861.906231,386.510386 L846.676558,391.926409 L832.575668,409.296142 L814.19822,450.462908 L820.735905,429.820772 L817.467062,422.264688 L834.836795,395.195252 L835.84451,382.226706 L836.980415,376.810682 L893.255786,347.601187 L895.399407,326.962611 L907.356677,316.134125 L910.62908,299.893175 L902.951929,297.749555 L908.371513,294.480712 L899.800593,296.734718 L905.209496,293.465875 L899.800593,292.337092 L898.668249,282.64095 L888.972107,279.368546 L885.703264,289.064688 L882.430861,280.497329 L872.731157,281.508605 L865.061128,299.893175 L870.477151,282.64095 L864.046291,291.322255 L874.874777,272.8273 L867.315134,273.956083 L860.773887,276.096142 L857.505045,271.812463 L856.483086,276.096142 L855.361424,271.812463 L851.074184,277.224926 L851.074184,272.8273 L846.676558,281.508605 L842.392878,268.540059 L842.392878,273.956083 L840.249258,269.665282 L830.435608,271.812463 L831.564392,266.396439 L826.148368,269.665282 L828.295549,266.396439 L822.875964,266.396439 L826.148368,263.127596 L817.467062,264.252819 L825.023145,261.998813 L822.875964,254.44273 L810.922255,253.424332 L814.19822,249.026706 L806.642136,246.883086 L805.509792,242.599407 L801.226113,249.026706 L802.351335,239.327003 L796.942433,245.757864 L797.950148,237.186944 L793.67003,232.785757 L787.128783,236.05816 L790.401187,231.77092 L774.156677,224.10089 L774.156677,219.817211 L769.865875,219.817211 L770.880712,230.642136 L777.425519,234.925816 L773.027893,239.327003 L777.425519,240.34184 L774.156677,246.883086 L779.569139,254.44273 L772.016617,246.883086 L768.744214,264.252819 L762.199407,256.58635 L761.188131,267.411276 L757.912166,254.44273 L742.8,260.980415 L743.818398,255.567953 L748.216024,257.711573 L747.08724,249.026706 L742.8,251.170326 L738.409496,241.470623 L729.721068,243.610682 L738.409496,239.327003 L731.978635,224.10089 L730.849852,229.516914 L715.730564,228.502077 L713.480119,221.960831 L708.067656,224.10089 L691.823145,214.404748 L688.668249,221.960831 L664.75727,220.945994 L661.598813,227.373294 L670.166172,237.186944 L669.151335,250.15549 L674.567359,248.011869 L680.994659,259.855193 L677.836202,284.781009 L694.077151,291.322255 L708.067656,315.119288 L703.780415,335.647478 L687.535905,351.888427 L697.235608,357.30089 L712.461721,386.510386 L708.067656,396.324036 L713.480119,405.008902 L705.924036,398.467656 L703.780415,408.167359 L695.091988,408.167359 L694.077151,400.611276 L671.294955,384.366766 L661.598813,348.616024 L634.525816,353.017211 L577.121662,325.947774 L558.737092,334.632641 L561.891988,326.962611 L552.192285,305.305638 L543.510979,305.305638 L543.510979,310.721662 L537.08368,301.021958 L535.954896,277.224926 L546.783383,256.58635 L543.510979,253.424332 L556.483086,241.470623 L551.070623,238.19822 L559.751929,238.19822 L564.149555,231.77092 L554.339466,224.10089 L550.055786,227.373294 L551.070623,223.086053 L538.098516,221.960831 L538.098516,216.544807 L563.024332,227.373294 L566.293175,215.52997 L580.390504,213.275964 L585.810089,197.035015 L555.464688,188.460534 L563.024332,186.210089 L581.408902,193.872997 L588.964985,179.775668 L581.408902,174.363205 L603.065875,177.635608 L590.090208,166.807122 L598.778635,165.678338 L604.187537,173.234421 L612.872404,153.724629 L599.789911,140.756083 L606.334718,136.468843 L600.918694,133.2 L603.065875,127.783976 L591.218991,125.640356 L594.377448,122.371513 L575.992878,123.496736 L585.810089,138.612463 L580.390504,139.741246 L580.390504,162.405935 L574.978042,166.807122 L564.149555,139.741246 L556.483086,135.340059 L554.339466,152.709792 L543.510979,135.340059 L550.055786,133.2 L534.826113,131.05638 L535.954896,126.655193 L535.954896,122.371513 L541.367359,123.496736 L521.854006,97.4456973 L512.157864,115.830267 L516.445104,116.95905 L515.430267,127.783976 L532.686053,136.468843 L527.266469,137.48368 L526.258754,146.168546 L530.538872,141.884866 L532.686053,148.308605 L521.854006,156.993472 L523.994065,171.090801 L515.430267,166.807122 L518.585163,153.724629 L514.297923,158.122255 L515.430267,153.724629 L510.017804,150.566172 L501.329377,152.709792 L504.60178,160.265875 L510.017804,159.137092 L510.017804,166.807122 L501.329377,156.993472 L500.204154,163.534718 L492.64451,164.549555 L478.547181,164.549555 L470.991098,155.982196 L461.291395,155.982196 L454.750148,142.896142 L437.383976,151.581009 L445.054006,154.849852 L456.890208,148.308605 L440.649258,160.265875 L446.065282,171.090801 L445.054006,175.381602 L440.649258,173.234421 L443.921662,183.048071 L436.369139,171.090801 L440.649258,167.821958 L428.809496,154.849852 L416.855786,159.137092 L396.331157,153.724629 L397.338872,147.297329 L406.023739,146.168546 L401.740059,137.48368 L389.78635,134.325223 L375.689021,122.371513 L367.000593,114.811869 L350.763205,116.95905 L354.035608,107.255786 L344.335905,115.830267 L342.188724,102.85816 L339.938279,93.158457 L339.938279,100.71454 L335.647478,100.71454 L316.137685,105.00178 L325.951335,97.4456973 L330.231454,94.1732938 L322.678932,96.4308605 L305.305638,99.5893175 L298.881899,98.5709199 L301.025519,91.0148368 L289.07181,94.1732938 L288.053412,103.986944 L273.956083,80.189911 L267.414837,67.1038576 L265.271217,63.9489614 L237.076558,37.894362 L234.932938,31.4635015 L239.330564,29.2130564 L232.789318,23.7970326 L233.91454,17.3661721 L226.248071,18.3810089 L232.789318,15.2261128 L233.91454,10.8249258 L221.964392,11.9537092 L216.548368,6.54124629 L208.995846,9.81008902 L212.261128,6.54124629 L202.451039,3.26884273 L197.042136,4.39762611 L178.646884,7.55608309 L171.097923,0 Z M708.067656,312.975668 L714.605341,318.391691 L708.067656,319.402967 L708.067656,315.119288 L708.067656,312.975668 Z M900.811869,438.505638 L896.524629,447.190504 L889.990504,443.921662 L900.811869,438.505638 Z" id="Fill-1"></path>
                </g>
            </g>
        </g>
    </g>
</svg>
